<mxfile host="app.diagrams.net" modified="2024-02-08T11:50:25.899Z" agent="Mozilla/5.0 (Windows NT 10.0; Win64; x64) AppleWebKit/537.36 (KHTML, like Gecko) Chrome/121.0.0.0 Safari/537.36" version="23.1.2" etag="x6-7-p4uJjwOgTgn1mC5" type="github">
  <diagram name="Page-1" id="qfYv3HW8d28wWqp7IwYZ">
    <mxGraphModel>
      <root>
        <mxCell id="0" />
        <mxCell id="1" parent="0" />
      </root>
    </mxGraphModel>
  </diagram>
</mxfile>
